<svg width="3231" height="1749" viewBox="0 0 3231 1749" fill="none" xmlns="http://www.w3.org/2000/svg">
<rect width="3231" height="1749" fill="#E7E7E7"/>
<path d="M1684.44 0H3158V1749H1389L1684.44 0Z" fill="#2DB2C4"/>
<path d="M179.472 693V605.96H197.136V693H179.472ZM231.713 693H214.561V629H231.585V632.584C237.388 629.171 242.721 627.464 247.585 627.464C256.118 627.464 262.006 629.981 265.249 635.016C268.492 640.051 270.113 647.816 270.113 658.312V693H252.961V658.824C252.961 653.363 252.321 649.352 251.041 646.792C249.761 644.147 247.201 642.824 243.361 642.824C239.862 642.824 236.492 643.421 233.249 644.616L231.713 645.128V693ZM320.767 643.592H305.023V669.832C305.023 672.392 305.066 674.227 305.151 675.336C305.322 676.36 305.791 677.256 306.559 678.024C307.412 678.792 308.692 679.176 310.399 679.176L320.127 678.92L320.895 692.616C315.178 693.896 310.826 694.536 307.839 694.536C300.159 694.536 294.911 692.829 292.095 689.416C289.279 685.917 287.871 679.517 287.871 670.216V643.592H280.319V629H287.871V611.208H305.023V629H320.767V643.592ZM346.016 668.296C346.101 672.221 347.125 675.08 349.088 676.872C351.136 678.579 354.037 679.432 357.792 679.432C365.728 679.432 372.811 679.176 379.04 678.664L382.624 678.28L382.88 690.952C373.067 693.341 364.192 694.536 356.256 694.536C346.613 694.536 339.616 691.976 335.264 686.856C330.912 681.736 328.736 673.416 328.736 661.896C328.736 638.941 338.165 627.464 357.024 627.464C375.627 627.464 384.928 637.107 384.928 656.392L383.648 668.296H346.016ZM368.032 655.24C368.032 650.12 367.221 646.579 365.6 644.616C363.979 642.568 361.12 641.544 357.024 641.544C353.013 641.544 350.155 642.611 348.448 644.744C346.827 646.792 345.973 650.291 345.888 655.24H368.032ZM397.186 693V629H414.21V635.784C421.378 631.517 428.205 628.744 434.69 627.464V644.744C427.778 646.195 421.847 647.688 416.898 649.224L414.338 650.12V693H397.186ZM438.795 629H456.715L466.955 678.408H470.539L481.291 629H498.699L483.339 693H454.155L438.795 629ZM508.561 693V629H525.713V693H508.561ZM508.561 620.808V603.4H525.713V620.808H508.561ZM555.641 668.296C555.726 672.221 556.75 675.08 558.713 676.872C560.761 678.579 563.662 679.432 567.417 679.432C575.353 679.432 582.436 679.176 588.665 678.664L592.249 678.28L592.505 690.952C582.692 693.341 573.817 694.536 565.881 694.536C556.238 694.536 549.241 691.976 544.889 686.856C540.537 681.736 538.361 673.416 538.361 661.896C538.361 638.941 547.79 627.464 566.649 627.464C585.252 627.464 594.553 637.107 594.553 656.392L593.273 668.296H555.641ZM577.657 655.24C577.657 650.12 576.846 646.579 575.225 644.616C573.604 642.568 570.745 641.544 566.649 641.544C562.638 641.544 559.78 642.611 558.073 644.744C556.452 646.792 555.598 650.291 555.513 655.24H577.657ZM601.947 629H618.843L626.651 678.408H629.723L639.451 630.28H657.115L666.843 678.408H669.915L677.723 629H694.619L682.459 693H655.579L648.283 653.832L640.987 693H614.107L601.947 629ZM767.347 667.656H753.011V693H735.347V605.96H767.347C787.998 605.96 798.323 616.029 798.323 636.168C798.323 646.323 795.678 654.131 790.387 659.592C785.182 664.968 777.502 667.656 767.347 667.656ZM753.011 652.552H767.219C776.008 652.552 780.403 647.091 780.403 636.168C780.403 630.792 779.336 626.952 777.203 624.648C775.07 622.259 771.742 621.064 767.219 621.064H753.011V652.552ZM809.186 693V629H826.21V635.784C833.378 631.517 840.205 628.744 846.69 627.464V644.744C839.778 646.195 833.847 647.688 828.898 649.224L826.338 650.12V693H809.186ZM870.891 668.296C870.976 672.221 872 675.08 873.963 676.872C876.011 678.579 878.912 679.432 882.667 679.432C890.603 679.432 897.686 679.176 903.915 678.664L907.499 678.28L907.755 690.952C897.942 693.341 889.067 694.536 881.131 694.536C871.488 694.536 864.491 691.976 860.139 686.856C855.787 681.736 853.611 673.416 853.611 661.896C853.611 638.941 863.04 627.464 881.899 627.464C900.502 627.464 909.803 637.107 909.803 656.392L908.523 668.296H870.891ZM892.907 655.24C892.907 650.12 892.096 646.579 890.475 644.616C888.854 642.568 885.995 641.544 881.899 641.544C877.888 641.544 875.03 642.611 873.323 644.744C871.702 646.792 870.848 650.291 870.763 655.24H892.907ZM922.061 719.88V629H939.085V632.456C944.632 629.128 949.496 627.464 953.677 627.464C962.296 627.464 968.653 630.067 972.749 635.272C976.845 640.392 978.893 649.139 978.893 661.512C978.893 673.885 976.632 682.504 972.109 687.368C967.586 692.147 960.162 694.536 949.837 694.536C947.021 694.536 943.992 694.28 940.749 693.768L939.213 693.512V719.88H922.061ZM950.349 642.824C947.192 642.824 943.992 643.464 940.749 644.744L939.213 645.384V678.92C943.053 679.432 946.168 679.688 948.557 679.688C953.506 679.688 956.877 678.237 958.669 675.336C960.546 672.435 961.485 667.485 961.485 660.488C961.485 648.712 957.773 642.824 950.349 642.824ZM1040.71 648.968V675.592C1040.88 677.64 1041.22 679.091 1041.73 679.944C1042.25 680.712 1043.31 681.267 1044.93 681.608L1044.42 694.536C1040.07 694.536 1036.57 694.237 1033.93 693.64C1031.37 693.043 1028.76 691.848 1026.12 690.056C1019.97 693.043 1013.7 694.536 1007.3 694.536C994.075 694.536 987.462 687.539 987.462 673.544C987.462 666.717 989.297 661.896 992.966 659.08C996.635 656.179 1002.27 654.472 1009.86 653.96L1023.56 652.936V648.968C1023.56 646.323 1022.96 644.531 1021.77 643.592C1020.57 642.568 1018.65 642.056 1016.01 642.056L991.942 643.08L991.43 631.176C1000.56 628.701 1009.22 627.464 1017.41 627.464C1025.69 627.464 1031.62 629.171 1035.21 632.584C1038.88 635.997 1040.71 641.459 1040.71 648.968ZM1011.91 665.864C1007.13 666.291 1004.74 668.851 1004.74 673.544C1004.74 678.237 1006.83 680.584 1011.01 680.584C1014.26 680.584 1017.8 680.072 1021.64 679.048L1023.56 678.536V664.84L1011.91 665.864ZM1057.06 693V629H1074.09V635.784C1081.25 631.517 1088.08 628.744 1094.57 627.464V644.744C1087.65 646.195 1081.72 647.688 1076.77 649.224L1074.21 650.12V693H1057.06ZM1153.71 648.968V675.592C1153.88 677.64 1154.22 679.091 1154.73 679.944C1155.25 680.712 1156.31 681.267 1157.93 681.608L1157.42 694.536C1153.07 694.536 1149.57 694.237 1146.93 693.64C1144.37 693.043 1141.76 691.848 1139.12 690.056C1132.97 693.043 1126.7 694.536 1120.3 694.536C1107.08 694.536 1100.46 687.539 1100.46 673.544C1100.46 666.717 1102.3 661.896 1105.97 659.08C1109.64 656.179 1115.27 654.472 1122.86 653.96L1136.56 652.936V648.968C1136.56 646.323 1135.96 644.531 1134.77 643.592C1133.57 642.568 1131.65 642.056 1129.01 642.056L1104.94 643.08L1104.43 631.176C1113.56 628.701 1122.22 627.464 1130.41 627.464C1138.69 627.464 1144.62 629.171 1148.21 632.584C1151.88 635.997 1153.71 641.459 1153.71 648.968ZM1124.91 665.864C1120.13 666.291 1117.74 668.851 1117.74 673.544C1117.74 678.237 1119.83 680.584 1124.01 680.584C1127.26 680.584 1130.8 680.072 1134.64 679.048L1136.56 678.536V664.84L1124.91 665.864ZM1205.52 643.592H1189.77V669.832C1189.77 672.392 1189.82 674.227 1189.9 675.336C1190.07 676.36 1190.54 677.256 1191.31 678.024C1192.16 678.792 1193.44 679.176 1195.15 679.176L1204.88 678.92L1205.65 692.616C1199.93 693.896 1195.58 694.536 1192.59 694.536C1184.91 694.536 1179.66 692.829 1176.85 689.416C1174.03 685.917 1172.62 679.517 1172.62 670.216V643.592H1165.07V629H1172.62V611.208H1189.77V629H1205.52V643.592ZM1216.69 693V629H1233.84V693H1216.69ZM1216.69 620.808V603.4H1233.84V620.808H1216.69ZM1253.14 636.296C1257.66 630.408 1265.22 627.464 1275.8 627.464C1286.38 627.464 1293.93 630.408 1298.45 636.296C1302.98 642.099 1305.24 650.291 1305.24 660.872C1305.24 683.315 1295.42 694.536 1275.8 694.536C1256.17 694.536 1246.36 683.315 1246.36 660.872C1246.36 650.291 1248.62 642.099 1253.14 636.296ZM1266.33 675.336C1268.12 678.408 1271.28 679.944 1275.8 679.944C1280.32 679.944 1283.44 678.408 1285.14 675.336C1286.93 672.264 1287.83 667.443 1287.83 660.872C1287.83 654.301 1286.93 649.523 1285.14 646.536C1283.44 643.549 1280.32 642.056 1275.8 642.056C1271.28 642.056 1268.12 643.549 1266.33 646.536C1264.62 649.523 1263.77 654.301 1263.77 660.872C1263.77 667.443 1264.62 672.264 1266.33 675.336ZM1334.96 693H1317.81V629H1334.84V632.584C1340.64 629.171 1345.97 627.464 1350.84 627.464C1359.37 627.464 1365.26 629.981 1368.5 635.016C1371.74 640.051 1373.36 647.816 1373.36 658.312V693H1356.21V658.824C1356.21 653.363 1355.57 649.352 1354.29 646.792C1353.01 644.147 1350.45 642.824 1346.61 642.824C1343.11 642.824 1339.74 643.421 1336.5 644.616L1334.96 645.128V693ZM234.64 886.592C225.595 888.555 217.445 889.536 210.192 889.536C202.939 889.536 197.136 888.64 192.784 886.848C188.432 885.056 185.019 882.197 182.544 878.272C180.069 874.347 178.363 869.739 177.424 864.448C176.485 859.157 176.016 852.501 176.016 844.48C176.016 827.669 178.363 815.979 183.056 809.408C187.835 802.752 196.581 799.424 209.296 799.424C216.635 799.424 225.125 800.576 234.768 802.88L234.256 816.96C225.808 815.68 218.768 815.04 213.136 815.04C207.589 815.04 203.621 815.808 201.232 817.344C198.843 818.795 197.051 821.611 195.856 825.792C194.747 829.973 194.192 837.099 194.192 847.168C194.192 857.237 195.344 864.235 197.648 868.16C200.037 872 204.731 873.92 211.728 873.92C218.811 873.92 226.32 873.323 234.256 872.128L234.64 886.592ZM249.892 831.296C254.415 825.408 261.967 822.464 272.548 822.464C283.129 822.464 290.681 825.408 295.204 831.296C299.727 837.099 301.988 845.291 301.988 855.872C301.988 878.315 292.175 889.536 272.548 889.536C252.921 889.536 243.108 878.315 243.108 855.872C243.108 845.291 245.369 837.099 249.892 831.296ZM263.076 870.336C264.868 873.408 268.025 874.944 272.548 874.944C277.071 874.944 280.185 873.408 281.892 870.336C283.684 867.264 284.58 862.443 284.58 855.872C284.58 849.301 283.684 844.523 281.892 841.536C280.185 838.549 277.071 837.056 272.548 837.056C268.025 837.056 264.868 838.549 263.076 841.536C261.369 844.523 260.516 849.301 260.516 855.872C260.516 862.443 261.369 867.264 263.076 870.336ZM352.321 824H369.473V888H352.449V884.416C346.305 887.829 340.972 889.536 336.449 889.536C327.574 889.536 321.601 887.104 318.529 882.24C315.457 877.291 313.921 869.056 313.921 857.536V824H331.073V857.792C331.073 864.107 331.585 868.416 332.609 870.72C333.633 873.024 336.108 874.176 340.033 874.176C343.788 874.176 347.329 873.579 350.657 872.384L352.321 871.872V824ZM385.311 888V824H402.335V830.784C409.503 826.517 416.33 823.744 422.815 822.464V839.744C415.903 841.195 409.972 842.688 405.023 844.224L402.463 845.12V888H385.311ZM478.888 840C468.307 838.635 460.883 837.952 456.616 837.952C452.435 837.952 449.704 838.336 448.424 839.104C447.229 839.872 446.632 841.109 446.632 842.816C446.632 844.437 447.443 845.589 449.064 846.272C450.771 846.869 455.037 847.808 461.864 849.088C468.776 850.283 473.683 852.288 476.584 855.104C479.485 857.92 480.936 862.485 480.936 868.8C480.936 882.624 472.36 889.536 455.208 889.536C449.576 889.536 442.749 888.768 434.728 887.232L430.632 886.464L431.144 872.128C441.725 873.493 449.064 874.176 453.16 874.176C457.341 874.176 460.157 873.792 461.608 873.024C463.144 872.171 463.912 870.933 463.912 869.312C463.912 867.691 463.101 866.496 461.48 865.728C459.944 864.96 455.848 864.021 449.192 862.912C442.621 861.803 437.715 859.925 434.472 857.28C431.229 854.635 429.608 849.941 429.608 843.2C429.608 836.373 431.912 831.253 436.52 827.84C441.128 824.341 447.059 822.592 454.312 822.592C459.347 822.592 466.216 823.403 474.92 825.024L479.144 825.792L478.888 840ZM507.391 863.296C507.476 867.221 508.5 870.08 510.463 871.872C512.511 873.579 515.412 874.432 519.167 874.432C527.103 874.432 534.186 874.176 540.415 873.664L543.999 873.28L544.255 885.952C534.442 888.341 525.567 889.536 517.631 889.536C507.988 889.536 500.991 886.976 496.639 881.856C492.287 876.736 490.111 868.416 490.111 856.896C490.111 833.941 499.54 822.464 518.399 822.464C537.002 822.464 546.303 832.107 546.303 851.392L545.023 863.296H507.391ZM529.407 850.24C529.407 845.12 528.596 841.579 526.975 839.616C525.354 837.568 522.495 836.544 518.399 836.544C514.388 836.544 511.53 837.611 509.823 839.744C508.202 841.792 507.348 845.291 507.263 850.24H529.407Z" fill="black"/>
<path d="M1757.44 0H3231V1749H1462L1757.44 0Z" fill="#0B0C10"/>
<path d="M180.99 1016.44C180.99 1023.44 184.77 1026.94 192.33 1026.94C196.25 1026.94 199.19 1026.12 201.15 1024.49C203.157 1022.81 204.16 1020.13 204.16 1016.44V982.56H209.48V1016.3C209.48 1021.71 208.033 1025.63 205.14 1028.06C202.293 1030.49 198.07 1031.7 192.47 1031.7C186.87 1031.7 182.647 1030.49 179.8 1028.06C177 1025.63 175.6 1021.71 175.6 1016.3V982.56H180.99V1016.44ZM220.509 1031V980.74H225.759V1031H220.509ZM254.42 1000.55H243.29V1017.28C243.29 1021.29 243.57 1023.93 244.13 1025.19C244.737 1026.45 246.137 1027.08 248.33 1027.08L254.56 1026.66L254.91 1031C251.783 1031.51 249.403 1031.77 247.77 1031.77C244.13 1031.77 241.61 1030.88 240.21 1029.11C238.81 1027.34 238.11 1023.95 238.11 1018.96V1000.55H233.14V996H238.11V985.29H243.29V996H254.42V1000.55ZM260.831 1031V996H266.081V1031H260.831ZM260.831 988.09V982H266.081V988.09H260.831ZM281.394 1031H276.144V996H281.324V998.45C284.824 996.35 288.23 995.3 291.544 995.3C295.884 995.3 298.917 996.49 300.644 998.87C302.184 997.937 304.167 997.12 306.594 996.42C309.067 995.673 311.237 995.3 313.104 995.3C317.77 995.3 320.897 996.56 322.484 999.08C324.117 1001.55 324.934 1006.03 324.934 1012.52V1031H319.684V1012.66C319.684 1007.81 319.217 1004.49 318.284 1002.72C317.35 1000.9 315.367 999.99 312.334 999.99C310.794 999.99 309.207 1000.22 307.574 1000.69C305.94 1001.11 304.68 1001.53 303.794 1001.95L302.464 1002.58C303.07 1004.12 303.374 1007.53 303.374 1012.8V1031H298.124V1012.94C298.124 1007.9 297.657 1004.49 296.724 1002.72C295.837 1000.9 293.854 999.99 290.774 999.99C289.28 999.99 287.74 1000.22 286.154 1000.69C284.614 1001.11 283.424 1001.53 282.584 1001.95L281.394 1002.58V1031ZM359.369 1006.57V1024.49C359.509 1026.22 360.862 1027.24 363.429 1027.57L363.219 1031.7C359.532 1031.7 356.756 1030.77 354.889 1028.9C350.689 1030.77 346.489 1031.7 342.289 1031.7C339.069 1031.7 336.619 1030.79 334.939 1028.97C333.259 1027.15 332.419 1024.54 332.419 1021.13C332.419 1017.72 333.282 1015.23 335.009 1013.64C336.736 1012.01 339.442 1011 343.129 1010.63L354.119 1009.58V1006.57C354.119 1004.19 353.606 1002.49 352.579 1001.46C351.552 1000.43 350.152 999.92 348.379 999.92C344.646 999.92 340.772 1000.15 336.759 1000.62L334.589 1000.83L334.379 996.84C339.512 995.813 344.062 995.3 348.029 995.3C351.996 995.3 354.866 996.21 356.639 998.03C358.459 999.85 359.369 1002.7 359.369 1006.57ZM337.809 1020.85C337.809 1025.14 339.582 1027.29 343.129 1027.29C346.302 1027.29 349.429 1026.75 352.509 1025.68L354.119 1025.12V1013.57L343.759 1014.55C341.659 1014.74 340.142 1015.34 339.209 1016.37C338.276 1017.4 337.809 1018.89 337.809 1020.85ZM387.858 1000.55H376.728V1017.28C376.728 1021.29 377.008 1023.93 377.568 1025.19C378.174 1026.45 379.574 1027.08 381.768 1027.08L387.998 1026.66L388.348 1031C385.221 1031.51 382.841 1031.77 381.208 1031.77C377.568 1031.77 375.048 1030.88 373.648 1029.11C372.248 1027.34 371.548 1023.95 371.548 1018.96V1000.55H366.578V996H371.548V985.29H376.728V996H387.858V1000.55ZM418.069 1026.66L420.099 1026.45L420.239 1030.58C414.919 1031.33 410.369 1031.7 406.589 1031.7C401.549 1031.7 397.979 1030.25 395.879 1027.36C393.779 1024.42 392.729 1019.87 392.729 1013.71C392.729 1001.44 397.605 995.3 407.359 995.3C412.072 995.3 415.595 996.63 417.929 999.29C420.262 1001.9 421.429 1006.03 421.429 1011.68L421.149 1015.67H398.049C398.049 1019.54 398.749 1022.41 400.149 1024.28C401.549 1026.15 403.975 1027.08 407.429 1027.08C410.929 1027.08 414.475 1026.94 418.069 1026.66ZM416.179 1011.47C416.179 1007.18 415.479 1004.14 414.079 1002.37C412.725 1000.6 410.485 999.71 407.359 999.71C404.279 999.71 401.945 1000.64 400.359 1002.51C398.819 1004.38 398.025 1007.36 397.979 1011.47H416.179ZM458.081 995.3C459.621 995.3 462.235 995.58 465.921 996.14L467.601 996.35L467.391 1000.62C463.658 1000.2 460.905 999.99 459.131 999.99C455.165 999.99 452.458 1000.95 451.011 1002.86C449.611 1004.73 448.911 1008.23 448.911 1013.36C448.911 1018.45 449.565 1021.99 450.871 1024C452.225 1026.01 455.001 1027.01 459.201 1027.01L467.461 1026.38L467.671 1030.72C463.331 1031.37 460.088 1031.7 457.941 1031.7C452.481 1031.7 448.701 1030.3 446.601 1027.5C444.548 1024.7 443.521 1019.99 443.521 1013.36C443.521 1006.69 444.641 1002.02 446.881 999.36C449.121 996.653 452.855 995.3 458.081 995.3ZM473.529 1013.43C473.529 1007.04 474.673 1002.42 476.959 999.57C479.246 996.723 483.096 995.3 488.509 995.3C493.969 995.3 497.819 996.723 500.059 999.57C502.346 1002.42 503.489 1007.04 503.489 1013.43C503.489 1019.82 502.416 1024.47 500.269 1027.36C498.123 1030.25 494.203 1031.7 488.509 1031.7C482.816 1031.7 478.896 1030.25 476.749 1027.36C474.603 1024.47 473.529 1019.82 473.529 1013.43ZM478.919 1013.36C478.919 1018.45 479.526 1022.02 480.739 1024.07C481.999 1026.12 484.589 1027.15 488.509 1027.15C492.476 1027.15 495.066 1026.15 496.279 1024.14C497.493 1022.09 498.099 1018.49 498.099 1013.36C498.099 1008.23 497.423 1004.7 496.069 1002.79C494.716 1000.83 492.196 999.85 488.509 999.85C484.869 999.85 482.349 1000.83 480.949 1002.79C479.596 1004.7 478.919 1008.23 478.919 1013.36ZM533.892 996H539.142V1031H533.892V1028.55C530.392 1030.65 526.938 1031.7 523.532 1031.7C518.772 1031.7 515.598 1030.46 514.012 1027.99C512.472 1025.52 511.702 1020.94 511.702 1014.27V996H516.952V1014.2C516.952 1019.29 517.395 1022.69 518.282 1024.42C519.168 1026.15 521.175 1027.01 524.302 1027.01C525.842 1027.01 527.405 1026.8 528.992 1026.38C530.578 1025.91 531.792 1025.47 532.632 1025.05L533.892 1024.42V996ZM549.239 1031V996H554.419V1000.76C558.479 997.96 562.749 996.117 567.229 995.23V1000.55C565.269 1000.92 563.216 1001.51 561.069 1002.3C558.969 1003.09 557.359 1003.79 556.239 1004.4L554.489 1005.31V1031H549.239ZM584.428 999.99C579.342 999.99 576.798 1001.76 576.798 1005.31C576.798 1006.94 577.382 1008.11 578.548 1008.81C579.715 1009.46 582.375 1010.16 586.528 1010.91C590.682 1011.61 593.622 1012.61 595.348 1013.92C597.075 1015.23 597.938 1017.68 597.938 1021.27C597.938 1024.86 596.772 1027.5 594.438 1029.18C592.152 1030.86 588.792 1031.7 584.358 1031.7C581.465 1031.7 578.058 1031.37 574.138 1030.72L572.038 1030.37L572.318 1025.82C577.638 1026.61 581.652 1027.01 584.358 1027.01C587.065 1027.01 589.118 1026.59 590.518 1025.75C591.965 1024.86 592.688 1023.42 592.688 1021.41C592.688 1019.36 592.082 1017.98 590.868 1017.28C589.655 1016.53 586.995 1015.83 582.888 1015.18C578.782 1014.53 575.865 1013.57 574.138 1012.31C572.412 1011.05 571.548 1008.72 571.548 1005.31C571.548 1001.9 572.738 999.383 575.118 997.75C577.545 996.117 580.555 995.3 584.148 995.3C586.995 995.3 590.565 995.627 594.858 996.28L596.818 996.63L596.678 1001.11C591.498 1000.36 587.415 999.99 584.428 999.99ZM629.778 1026.66L631.808 1026.45L631.948 1030.58C626.628 1031.33 622.078 1031.7 618.298 1031.7C613.258 1031.7 609.688 1030.25 607.588 1027.36C605.488 1024.42 604.438 1019.87 604.438 1013.71C604.438 1001.44 609.314 995.3 619.068 995.3C623.781 995.3 627.304 996.63 629.638 999.29C631.971 1001.9 633.138 1006.03 633.138 1011.68L632.858 1015.67H609.758C609.758 1019.54 610.458 1022.41 611.858 1024.28C613.258 1026.15 615.684 1027.08 619.138 1027.08C622.638 1027.08 626.184 1026.94 629.778 1026.66ZM627.888 1011.47C627.888 1007.18 627.188 1004.14 625.788 1002.37C624.434 1000.6 622.194 999.71 619.068 999.71C615.988 999.71 613.654 1000.64 612.068 1002.51C610.528 1004.38 609.734 1007.36 609.688 1011.47H627.888ZM674.83 1000.55H663.7V1017.28C663.7 1021.29 663.98 1023.93 664.54 1025.19C665.147 1026.45 666.547 1027.08 668.74 1027.08L674.97 1026.66L675.32 1031C672.193 1031.51 669.813 1031.77 668.18 1031.77C664.54 1031.77 662.02 1030.88 660.62 1029.11C659.22 1027.34 658.52 1023.95 658.52 1018.96V1000.55H653.55V996H658.52V985.29H663.7V996H674.83V1000.55ZM679.701 1013.43C679.701 1007.04 680.845 1002.42 683.131 999.57C685.418 996.723 689.268 995.3 694.681 995.3C700.141 995.3 703.991 996.723 706.231 999.57C708.518 1002.42 709.661 1007.04 709.661 1013.43C709.661 1019.82 708.588 1024.47 706.441 1027.36C704.295 1030.25 700.375 1031.7 694.681 1031.7C688.988 1031.7 685.068 1030.25 682.921 1027.36C680.775 1024.47 679.701 1019.82 679.701 1013.43ZM685.091 1013.36C685.091 1018.45 685.698 1022.02 686.911 1024.07C688.171 1026.12 690.761 1027.15 694.681 1027.15C698.648 1027.15 701.238 1026.15 702.451 1024.14C703.665 1022.09 704.271 1018.49 704.271 1013.36C704.271 1008.23 703.595 1004.7 702.241 1002.79C700.888 1000.83 698.368 999.85 694.681 999.85C691.041 999.85 688.521 1000.83 687.121 1002.79C685.768 1004.7 685.091 1008.23 685.091 1013.36ZM758.314 1006.57V1024.49C758.454 1026.22 759.808 1027.24 762.374 1027.57L762.164 1031.7C758.478 1031.7 755.701 1030.77 753.834 1028.9C749.634 1030.77 745.434 1031.7 741.234 1031.7C738.014 1031.7 735.564 1030.79 733.884 1028.97C732.204 1027.15 731.364 1024.54 731.364 1021.13C731.364 1017.72 732.228 1015.23 733.954 1013.64C735.681 1012.01 738.388 1011 742.074 1010.63L753.064 1009.58V1006.57C753.064 1004.19 752.551 1002.49 751.524 1001.46C750.498 1000.43 749.098 999.92 747.324 999.92C743.591 999.92 739.718 1000.15 735.704 1000.62L733.534 1000.83L733.324 996.84C738.458 995.813 743.008 995.3 746.974 995.3C750.941 995.3 753.811 996.21 755.584 998.03C757.404 999.85 758.314 1002.7 758.314 1006.57ZM736.754 1020.85C736.754 1025.14 738.528 1027.29 742.074 1027.29C745.248 1027.29 748.374 1026.75 751.454 1025.68L753.064 1025.12V1013.57L742.704 1014.55C740.604 1014.74 739.088 1015.34 738.154 1016.37C737.221 1017.4 736.754 1018.89 736.754 1020.85ZM781.763 995.3C783.303 995.3 785.916 995.58 789.603 996.14L791.283 996.35L791.073 1000.62C787.339 1000.2 784.586 999.99 782.813 999.99C778.846 999.99 776.139 1000.95 774.693 1002.86C773.293 1004.73 772.593 1008.23 772.593 1013.36C772.593 1018.45 773.246 1021.99 774.553 1024C775.906 1026.01 778.683 1027.01 782.883 1027.01L791.143 1026.38L791.353 1030.72C787.013 1031.37 783.769 1031.7 781.623 1031.7C776.163 1031.7 772.383 1030.3 770.283 1027.5C768.229 1024.7 767.203 1019.99 767.203 1013.36C767.203 1006.69 768.323 1002.02 770.563 999.36C772.803 996.653 776.536 995.3 781.763 995.3ZM822.551 1026.66L824.581 1026.45L824.721 1030.58C819.401 1031.33 814.851 1031.7 811.071 1031.7C806.031 1031.7 802.461 1030.25 800.361 1027.36C798.261 1024.42 797.211 1019.87 797.211 1013.71C797.211 1001.44 802.088 995.3 811.841 995.3C816.554 995.3 820.078 996.63 822.411 999.29C824.744 1001.9 825.911 1006.03 825.911 1011.68L825.631 1015.67H802.531C802.531 1019.54 803.231 1022.41 804.631 1024.28C806.031 1026.15 808.458 1027.08 811.911 1027.08C815.411 1027.08 818.958 1026.94 822.551 1026.66ZM820.661 1011.47C820.661 1007.18 819.961 1004.14 818.561 1002.37C817.208 1000.6 814.968 999.71 811.841 999.71C808.761 999.71 806.428 1000.64 804.841 1002.51C803.301 1004.38 802.508 1007.36 802.461 1011.47H820.661ZM846.184 996H851.434L860.184 1026.45H862.494L871.314 996H876.564L862.004 1046.54H856.754L861.304 1031H856.124L846.184 996ZM881.156 1013.43C881.156 1007.04 882.3 1002.42 884.586 999.57C886.873 996.723 890.723 995.3 896.136 995.3C901.596 995.3 905.446 996.723 907.686 999.57C909.973 1002.42 911.116 1007.04 911.116 1013.43C911.116 1019.82 910.043 1024.47 907.896 1027.36C905.75 1030.25 901.83 1031.7 896.136 1031.7C890.443 1031.7 886.523 1030.25 884.376 1027.36C882.23 1024.47 881.156 1019.82 881.156 1013.43ZM886.546 1013.36C886.546 1018.45 887.153 1022.02 888.366 1024.07C889.626 1026.12 892.216 1027.15 896.136 1027.15C900.103 1027.15 902.693 1026.15 903.906 1024.14C905.12 1022.09 905.726 1018.49 905.726 1013.36C905.726 1008.23 905.05 1004.7 903.696 1002.79C902.343 1000.83 899.823 999.85 896.136 999.85C892.496 999.85 889.976 1000.83 888.576 1002.79C887.223 1004.7 886.546 1008.23 886.546 1013.36ZM941.519 996H946.769V1031H941.519V1028.55C938.019 1030.65 934.565 1031.7 931.159 1031.7C926.399 1031.7 923.225 1030.46 921.639 1027.99C920.099 1025.52 919.329 1020.94 919.329 1014.27V996H924.579V1014.2C924.579 1019.29 925.022 1022.69 925.909 1024.42C926.795 1026.15 928.802 1027.01 931.929 1027.01C933.469 1027.01 935.032 1026.8 936.619 1026.38C938.205 1025.91 939.419 1025.47 940.259 1025.05L941.519 1024.42V996ZM956.866 1031V996H962.046V1000.76C966.106 997.96 970.376 996.117 974.856 995.23V1000.55C972.896 1000.92 970.843 1001.51 968.696 1002.3C966.596 1003.09 964.986 1003.79 963.866 1004.4L962.116 1005.31V1031H956.866ZM996.446 1031V996H1001.7V1031H996.446ZM996.446 988.09V982H1001.7V988.09H996.446ZM1017.01 1031H1011.76V996H1016.94V998.45C1020.72 996.35 1024.34 995.3 1027.79 995.3C1032.46 995.3 1035.58 996.56 1037.17 999.08C1038.8 1001.6 1039.62 1006.08 1039.62 1012.52V1031H1034.44V1012.66C1034.44 1007.81 1033.95 1004.49 1032.97 1002.72C1032.04 1000.9 1030.01 999.99 1026.88 999.99C1025.39 999.99 1023.8 1000.22 1022.12 1000.69C1020.49 1001.11 1019.23 1001.53 1018.34 1001.95L1017.01 1002.58V1031ZM1067.28 1000.55H1056.15V1017.28C1056.15 1021.29 1056.43 1023.93 1056.99 1025.19C1057.6 1026.45 1059 1027.08 1061.19 1027.08L1067.42 1026.66L1067.77 1031C1064.64 1031.51 1062.26 1031.77 1060.63 1031.77C1056.99 1031.77 1054.47 1030.88 1053.07 1029.11C1051.67 1027.34 1050.97 1023.95 1050.97 1018.96V1000.55H1046V996H1050.97V985.29H1056.15V996H1067.28V1000.55ZM1097.49 1026.66L1099.52 1026.45L1099.66 1030.58C1094.34 1031.33 1089.79 1031.7 1086.01 1031.7C1080.97 1031.7 1077.4 1030.25 1075.3 1027.36C1073.2 1024.42 1072.15 1019.87 1072.15 1013.71C1072.15 1001.44 1077.03 995.3 1086.78 995.3C1091.5 995.3 1095.02 996.63 1097.35 999.29C1099.69 1001.9 1100.85 1006.03 1100.85 1011.68L1100.57 1015.67H1077.47C1077.47 1019.54 1078.17 1022.41 1079.57 1024.28C1080.97 1026.15 1083.4 1027.08 1086.85 1027.08C1090.35 1027.08 1093.9 1026.94 1097.49 1026.66ZM1095.6 1011.47C1095.6 1007.18 1094.9 1004.14 1093.5 1002.37C1092.15 1000.6 1089.91 999.71 1086.78 999.71C1083.7 999.71 1081.37 1000.64 1079.78 1002.51C1078.24 1004.38 1077.45 1007.36 1077.4 1011.47H1095.6ZM1109.03 1031V996H1114.21V1000.76C1118.27 997.96 1122.54 996.117 1127.02 995.23V1000.55C1125.06 1000.92 1123.01 1001.51 1120.86 1002.3C1118.76 1003.09 1117.15 1003.79 1116.03 1004.4L1114.28 1005.31V1031H1109.03ZM1129.94 996H1135.54L1143.73 1026.45H1146.32L1154.79 996H1160.18L1150.31 1031H1139.81L1129.94 996ZM1166.93 1031V996H1172.18V1031H1166.93ZM1166.93 988.09V982H1172.18V988.09H1166.93ZM1206.05 1026.66L1208.08 1026.45L1208.22 1030.58C1202.9 1031.33 1198.35 1031.7 1194.57 1031.7C1189.53 1031.7 1185.96 1030.25 1183.86 1027.36C1181.76 1024.42 1180.71 1019.87 1180.71 1013.71C1180.71 1001.44 1185.58 995.3 1195.34 995.3C1200.05 995.3 1203.57 996.63 1205.91 999.29C1208.24 1001.9 1209.41 1006.03 1209.41 1011.68L1209.13 1015.67H1186.03C1186.03 1019.54 1186.73 1022.41 1188.13 1024.28C1189.53 1026.15 1191.95 1027.08 1195.41 1027.08C1198.91 1027.08 1202.45 1026.94 1206.05 1026.66ZM1204.16 1011.47C1204.16 1007.18 1203.46 1004.14 1202.06 1002.37C1200.7 1000.6 1198.46 999.71 1195.34 999.71C1192.26 999.71 1189.92 1000.64 1188.34 1002.51C1186.8 1004.38 1186 1007.36 1185.96 1011.47H1204.16ZM1214.38 996H1219.63L1226.7 1026.45H1227.82L1236.15 996.7H1241.61L1249.94 1026.45H1251.13L1258.13 996H1263.38L1255.05 1031H1246.3L1238.88 1003.63L1231.46 1031H1222.71L1214.38 996ZM1281.28 999.99C1276.2 999.99 1273.65 1001.76 1273.65 1005.31C1273.65 1006.94 1274.24 1008.11 1275.4 1008.81C1276.57 1009.46 1279.23 1010.16 1283.38 1010.91C1287.54 1011.61 1290.48 1012.61 1292.2 1013.92C1293.93 1015.23 1294.79 1017.68 1294.79 1021.27C1294.79 1024.86 1293.63 1027.5 1291.29 1029.18C1289.01 1030.86 1285.65 1031.7 1281.21 1031.7C1278.32 1031.7 1274.91 1031.37 1270.99 1030.72L1268.89 1030.37L1269.17 1025.82C1274.49 1026.61 1278.51 1027.01 1281.21 1027.01C1283.92 1027.01 1285.97 1026.59 1287.37 1025.75C1288.82 1024.86 1289.54 1023.42 1289.54 1021.41C1289.54 1019.36 1288.94 1017.98 1287.72 1017.28C1286.51 1016.53 1283.85 1015.83 1279.74 1015.18C1275.64 1014.53 1272.72 1013.57 1270.99 1012.31C1269.27 1011.05 1268.4 1008.72 1268.4 1005.31C1268.4 1001.9 1269.59 999.383 1271.97 997.75C1274.4 996.117 1277.41 995.3 1281 995.3C1283.85 995.3 1287.42 995.627 1291.71 996.28L1293.67 996.63L1293.53 1001.11C1288.35 1000.36 1284.27 999.99 1281.28 999.99Z" fill="black"/>
<g clip-path="url(#clip0_749_785)">
<path d="M2970.2 1364.31C2926.78 1397.38 2873.88 1430.87 2821.87 1446.67C2806.87 1451.36 2791.4 1454.35 2775.74 1455.59C2761.1 1456.77 2746.36 1455.62 2732.08 1452.2C2694.54 1442.87 2659.72 1426.51 2626.04 1407.41C2615.03 1401.16 2604.15 1394.62 2593.33 1387.94C2575.68 1377.03 2558.2 1365.74 2540.67 1354.72C2538.05 1353.05 2535.44 1351.41 2532.81 1349.79H2532.8C2528.57 1347.13 2524.33 1344.51 2520.07 1341.93C2519.33 1341.47 2518.58 1341.02 2517.82 1340.56C2509.78 1335.69 2501.61 1330.94 2493.3 1326.29C2492.29 1325.74 2491.27 1325.16 2490.25 1324.61C2474.18 1315.69 2457.66 1307.61 2440.75 1300.38C2429.65 1295.71 2418.41 1291.49 2407.05 1287.9H2407.03C2402.69 1286.53 2398.33 1285.24 2393.96 1284.06C2380.84 1280.47 2367.48 1277.85 2353.97 1276.24C2335.36 1273.99 2316.54 1274.13 2297.97 1276.68C2296.71 1276.86 2295.47 1277.03 2294.21 1277.24C2243.95 1285.29 2198.08 1312.42 2147.6 1318.82C2145.96 1319.02 2144.34 1319.22 2142.7 1319.36C2142 1319.42 2141.3 1319.5 2140.6 1319.55C2125.93 1320.8 2111.16 1320.44 2096.57 1318.47C2055.81 1313.09 2016.1 1296.41 1980.36 1275.38C1896.81 1226.22 1829.05 1150.65 1787.86 1063.13C1780.79 1048.14 1774.5 1032.78 1769.04 1017.12C1753.77 973.702 1745.36 928.169 1744.12 882.161C1740.25 722.532 1830.96 562.379 1973.38 490.183C2115.82 417.988 2303.19 441.862 2418.06 552.772C2487.74 620.052 2528.06 711.223 2580.5 792.676C2632.94 874.113 2707.47 951.907 2803.61 963.773C2852.58 969.817 2903.83 958.126 2950.77 973.332C2976.76 981.762 2998.93 997.89 3016.79 1018.44C3028.8 1032.39 3038.85 1047.9 3046.66 1064.57C3052.39 1076.61 3057.03 1089.14 3060.55 1102.01C3061.2 1104.38 3061.8 1106.75 3062.39 1109.12C3085.77 1204.62 3048.41 1304.72 2970.2 1364.31Z" fill="#171717"/>
<path d="M2188.03 1191.43H2038.52C2016.12 1191.43 1997.96 1209.59 1997.96 1231.99V1231.99C1997.96 1254.39 2016.12 1272.55 2038.52 1272.55H2188.03C2210.43 1272.55 2228.59 1254.39 2228.59 1231.99C2228.59 1209.59 2210.43 1191.43 2188.03 1191.43Z" fill="#3F3D56"/>
<path d="M2142.7 1251.87V1319.36C2127.34 1320.84 2111.86 1320.55 2096.57 1318.47V1251.87H2142.7Z" fill="#3F3D56"/>
<path d="M2297.97 1276.68C2296.71 1276.86 2295.47 1277.03 2294.21 1277.24C2243.95 1285.29 2198.08 1312.42 2147.6 1318.82C2145.96 1319.02 2144.34 1319.22 2142.7 1319.36C2142 1319.42 2141.3 1319.5 2140.6 1319.55C2128.27 1307.48 2115.94 1294.63 2104.36 1281.31C2098.08 1274.11 2092.01 1266.76 2086.3 1259.31C2071.47 1240.1 2058.91 1220.35 2050.6 1200.94C2051.45 1191.64 2045.66 1170.12 2042.89 1153.64L2042.87 1153.62C2041.7 1146.7 2041.06 1140.69 2041.65 1136.83C2045.02 1114.53 2063.23 1117.09 2068.83 1095.23C2073.88 1091.04 2079.26 1087.26 2084.91 1083.92C2085.85 1083.37 2086.8 1082.81 2087.79 1082.25L2148.55 1040.26L2171.77 1063.04L2207.11 1097.71L2245.42 1135.27L2212.9 1168.11C2212.9 1168.11 2240.07 1199.43 2271.83 1241.18C2280.36 1252.4 2289.22 1264.37 2297.97 1276.68Z" fill="#2F2E41"/>
<path d="M2821.87 1251.87V1446.67C2806.87 1451.36 2791.4 1454.35 2775.74 1455.59V1251.87H2821.87Z" fill="#3F3D56"/>
<path d="M2881.51 1235.97H2732C2709.6 1235.97 2691.44 1254.12 2691.44 1276.52V1276.52C2691.44 1298.92 2709.6 1317.08 2732 1317.08H2881.51C2903.91 1317.08 2922.07 1298.92 2922.07 1276.52C2922.07 1254.12 2903.91 1235.97 2881.51 1235.97Z" fill="#3F3D56"/>
<path d="M2517.81 1340.56C2509.78 1335.69 2501.61 1330.94 2493.3 1326.29C2492.29 1325.74 2491.27 1325.16 2490.25 1324.61L2495.72 1322.27L2510.48 1315.92L2510.63 1315.86L2510.78 1316.4L2517.81 1340.56Z" fill="#FFB6B6"/>
<path d="M2540.67 1354.72C2538.05 1353.05 2535.44 1351.41 2532.82 1349.79H2532.8C2528.57 1347.13 2524.33 1344.51 2520.08 1341.93C2519.33 1341.47 2518.58 1341.02 2517.82 1340.56C2509.78 1335.69 2501.61 1330.94 2493.31 1326.29C2492.29 1325.74 2491.27 1325.16 2490.25 1324.61C2474.18 1315.69 2457.66 1307.61 2440.75 1300.38C2429.65 1295.71 2418.41 1291.49 2407.05 1287.9H2407.03L2398.11 1272.96L2357.95 1205.7L2349.12 1190.92C2349.12 1190.92 2319.01 1199.83 2276.4 1208.37C2260.89 1211.49 2243.75 1214.54 2225.76 1217.12C2206.53 1219.85 2186.36 1222.03 2166.32 1223.08C2156.76 1223.59 2147.23 1223.85 2137.85 1223.77C2113.59 1223.61 2090.29 1221.33 2069.88 1215.92C2063.08 1209.53 2042.56 1200.83 2027.86 1192.86H2027.84C2021.67 1189.52 2016.55 1186.32 2013.86 1183.48C1998.37 1167.09 2011.61 1154.32 1997.83 1136.44C1997.65 1129.89 1997.98 1123.32 1998.83 1116.82C1998.98 1115.73 1999.12 1114.64 1999.29 1113.52L2003.64 1039.79L2035.89 1035.52L2084.98 1029.03L2138.15 1022L2144 1067.84C2144 1067.84 2185.41 1065.74 2237.86 1066.44C2322.11 1067.59 2434.85 1075.99 2450.12 1112.03C2451.55 1115.42 2452.99 1118.84 2454.42 1122.26C2457.82 1130.43 2461.19 1138.65 2464.53 1146.91C2476.64 1176.81 2488.18 1207 2498.73 1235.54C2505.28 1253.29 2511.45 1270.4 2517.13 1286.42C2521.7 1299.3 2525.93 1311.48 2529.79 1322.7C2533.32 1332.94 2536.52 1342.37 2539.37 1350.84C2539.81 1352.16 2540.24 1353.46 2540.67 1354.72Z" fill="#2F2E41"/>
<path d="M2243.94 907.948L2142.06 821.419L2208.35 754.334L2254.59 830.082L2426.01 864.067C2431.17 860.188 2437.34 857.892 2443.77 857.46C2450.21 857.028 2456.63 858.478 2462.26 861.633C2467.89 864.789 2472.48 869.513 2475.46 875.23C2478.45 880.947 2479.71 887.41 2479.09 893.831C2478.47 900.252 2475.99 906.354 2471.96 911.392C2467.93 916.43 2462.53 920.187 2456.4 922.204C2450.27 924.222 2443.69 924.413 2437.45 922.754C2431.22 921.095 2425.6 917.659 2421.29 912.863L2243.94 907.948Z" fill="#A0616A"/>
<path d="M2052.02 707.7C2040.24 746.005 2152.38 837.362 2152.38 837.362C2153.63 828.166 2217.21 907.464 2221.53 900.282C2233.83 879.872 2247.35 829.42 2261.55 822.971C2269.66 819.284 2223.1 768.028 2223.1 768.028C2223.1 768.028 2199.35 736.605 2167.99 696.78C2159.33 685.356 2147.93 676.309 2134.83 670.479C2121.74 664.65 2107.38 662.228 2093.1 663.44C2093.1 663.44 2063.79 669.395 2052.02 707.7Z" fill="#3F3D56"/>
<path d="M2101.6 622.901C2139.65 622.901 2170.51 592.049 2170.51 553.992C2170.51 515.934 2139.65 485.082 2101.6 485.082C2063.54 485.082 2032.69 515.934 2032.69 553.992C2032.69 592.049 2063.54 622.901 2101.6 622.901Z" fill="#A0616A"/>
<path d="M2136.05 668.445C2150.9 677.271 2159.78 693.487 2164.88 709.989C2174.32 740.539 2180 772.125 2181.8 804.05L2187.18 899.625L2253.87 1103.13C2196.07 1152.04 1978.83 1114.25 1978.83 1114.25C1978.83 1114.25 1972.16 1112.02 1978.83 1105.36C1985.5 1098.69 1991.99 1104.6 1985.32 1097.93C1978.65 1091.26 1983.25 1098.69 1985.47 1092.02C1987.69 1085.35 1985.47 1089.8 1983.25 1087.57C1981.03 1085.35 2000.46 1065.34 2000.46 1065.34L1982.67 948.529L1960.45 712.903C1987.12 679.559 2040.77 659.904 2040.77 659.904L2054.63 634.953L2123.94 640.498L2136.05 668.445Z" fill="#3F3D56"/>
<path d="M2158.4 517.381C2163.76 521.376 2167.73 526.95 2169.75 533.318C2170.52 522.911 2170.57 512.462 2169.89 502.048C2169.08 494.731 2163.93 493.085 2157.96 491.177C2152.58 489.454 2146.48 487.507 2144.85 480.403C2123.18 459.331 2085.48 460.394 2059.67 467.744C2045.47 471.789 2037.3 476.986 2036.57 480.03L2036.42 480.656L2035.84 480.945C2024.89 486.418 2022.76 503.7 2022.9 517.234C2023.17 542.733 2031.98 571.693 2036.94 574.046C2037.2 574.17 2037.26 574.121 2037.38 574.027C2044.85 568.058 2053.96 574.48 2057.96 577.971C2060.32 562.123 2067.93 547.524 2079.56 536.505C2091.19 525.485 2106.18 518.682 2122.13 517.181C2127.34 516.678 2132.51 515.811 2137.6 514.588C2140.18 513.92 2142.84 513.572 2145.5 513.551C2150.09 513.481 2154.59 514.818 2158.4 517.381V517.381Z" fill="#2F2E41"/>
<path d="M2071.57 1011.77L2050.49 1000.97C2049.37 1000.17 2048.56 998.984 2048.23 997.636C2047.91 996.289 2048.07 994.868 2048.71 993.634C2049.34 992.4 2050.39 991.434 2051.68 990.913C2052.96 990.392 2054.39 990.351 2055.71 990.797L2076.79 1001.59C2077.91 1002.4 2078.72 1003.58 2079.05 1004.93C2079.37 1006.28 2079.21 1007.7 2078.57 1008.93C2077.94 1010.17 2076.89 1011.13 2075.6 1011.65C2074.32 1012.17 2072.89 1012.21 2071.57 1011.77L2071.57 1011.77Z" fill="#6C63FF"/>
<path d="M2000.63 982.845L1965.95 853.751L2058.62 836.21L2053.63 924.819L2175.39 1050.18C2181.83 1049.92 2188.22 1051.54 2193.76 1054.84C2199.3 1058.14 2203.76 1062.98 2206.6 1068.78C2209.44 1074.57 2210.53 1081.06 2209.74 1087.47C2208.95 1093.87 2206.31 1099.9 2202.15 1104.84C2197.99 1109.77 2192.49 1113.38 2186.31 1115.24C2180.13 1117.09 2173.55 1117.11 2167.36 1115.29C2161.17 1113.47 2155.65 1109.89 2151.46 1104.98C2147.27 1100.07 2144.6 1094.05 2143.77 1087.65L2000.63 982.845Z" fill="#A0616A"/>
<path d="M1956.47 709.011C1925.02 733.842 1965.39 872.736 1965.39 872.736C1971.64 865.876 1978.9 967.255 1986.54 963.803C2008.26 953.992 2048.05 920.161 2063.4 922.918C2072.17 924.495 2062.98 855.861 2062.98 855.861C2062.98 855.861 2061.29 816.508 2058.11 765.918C2057.48 751.599 2053.23 737.673 2045.77 725.436C2038.3 713.199 2027.87 703.049 2015.43 695.931C2015.43 695.931 1987.92 684.18 1956.47 709.011Z" fill="#3F3D56"/>
<path d="M3046.66 1064.57L1787.86 1063.14C1780.79 1048.14 1774.5 1032.78 1769.04 1017.12L3016.79 1018.44C3028.8 1032.39 3038.85 1047.9 3046.66 1064.57V1064.57Z" fill="#3F3D56"/>
<path d="M2645.73 1398.3C2639.22 1401.45 2632.66 1404.48 2626.04 1407.41C2615.03 1401.16 2604.15 1394.62 2593.34 1387.94L2633.45 1370.32L2645.73 1398.3Z" fill="#FFB6B6"/>
<path d="M2938.2 1179.12C2931.68 1187.87 2924.95 1196.44 2918.01 1204.84C2911.62 1212.58 2905.06 1220.18 2898.32 1227.63C2895.54 1230.72 2892.72 1233.79 2889.85 1236.82C2884.55 1242.5 2879.14 1248.09 2873.61 1253.57C2863.65 1256.71 2843.48 1262.23 2821.87 1267.38C2806.13 1271.12 2789.64 1274.66 2775.74 1276.92C2767.96 1278.32 2760.08 1279.16 2752.18 1279.44C2742.8 1279.51 2733.27 1279.26 2723.71 1278.75C2712.93 1278.18 2702.13 1277.29 2691.46 1276.14C2663.7 1273.23 2636.82 1268.7 2613.63 1264.04C2605.14 1262.35 2597.15 1260.63 2589.8 1258.96C2575.89 1255.83 2564.24 1252.9 2555.81 1250.68C2546.32 1248.2 2540.91 1246.59 2540.91 1246.59L2517.13 1286.42L2504.79 1307.08L2495.72 1322.27L2493.3 1326.29C2492.29 1325.74 2491.27 1325.16 2490.25 1324.61C2474.18 1315.69 2457.65 1307.61 2440.75 1300.38C2429.65 1295.71 2418.4 1291.49 2407.05 1287.9H2407.03C2402.69 1286.53 2398.33 1285.24 2393.96 1284.06C2395.32 1280.39 2396.71 1276.69 2398.11 1272.96C2400.72 1266.01 2403.38 1259 2406.09 1251.92C2411.96 1236.59 2418.04 1221.03 2424.29 1205.55C2429.41 1192.85 2434.63 1180.18 2439.91 1167.7C2442.34 1161.94 2447.29 1156.88 2454.21 1152.44C2457.51 1150.36 2460.96 1148.51 2464.53 1146.91C2484.33 1137.89 2513.5 1132.02 2545.65 1128.25C2548.31 1127.95 2550.98 1127.65 2553.67 1127.36C2580.28 1124.56 2608.51 1123.12 2634.91 1122.45C2648.13 1122.11 2660.89 1121.99 2672.75 1121.97C2676.58 1121.97 2680.31 1121.98 2683.93 1122H2683.95C2693.73 1122.05 2702.73 1122.19 2710.65 1122.35C2712.2 1122.38 2713.69 1122.43 2715.16 1122.46H2715.17C2716.16 1122.48 2717.13 1122.51 2718.08 1122.53C2735.4 1122.97 2746.03 1123.51 2746.03 1123.51L2750.15 1091.19L2750.99 1084.67L2751.79 1078.47V1078.45L2751.88 1077.67L2752.53 1077.66L2763.99 1077.43L2860.25 1075.56L2912.83 1074.52L2904.5 1110.25L2890.74 1169.19C2892.14 1178.51 2938.68 1171.21 2938.2 1179.12Z" fill="#2F2E41"/>
<path d="M2657.59 1392.41C2653.67 1394.42 2649.7 1396.39 2645.73 1398.3C2639.22 1401.45 2632.66 1404.49 2626.04 1407.41C2615.03 1401.16 2604.15 1394.62 2593.34 1387.94C2575.68 1377.03 2558.2 1365.74 2540.67 1354.72C2538.05 1353.05 2535.44 1351.41 2532.81 1349.79H2532.8C2525.58 1339.07 2518.21 1327.9 2510.79 1316.4C2510.67 1316.24 2510.58 1316.08 2510.48 1315.92C2508.57 1313 2506.68 1310.05 2504.79 1307.08C2492.91 1288.47 2480.96 1269.06 2469.37 1249.25L2498.73 1235.54L2553.32 1210.05L2562.73 1205.67L2589.8 1258.96L2613.95 1306.51L2619.33 1317.08L2657.59 1392.41Z" fill="#2F2E41"/>
<path d="M2665.82 1136.52L2805 1002.3L2843.57 893.079L2786.67 868.337C2757.45 896.333 2725.85 983.532 2725.85 983.532L2630.08 1105.38C2629.34 1105.63 2628.59 1105.9 2627.86 1106.23C2623.54 1108.13 2619.79 1111.11 2616.97 1114.89C2614.15 1118.66 2612.34 1123.1 2611.74 1127.78C2611.13 1132.45 2611.74 1137.21 2613.51 1141.58C2615.27 1145.95 2618.14 1149.79 2621.82 1152.73C2625.51 1155.67 2629.89 1157.61 2634.54 1158.36C2639.2 1159.11 2643.97 1158.65 2648.39 1157.02C2652.81 1155.39 2656.74 1152.65 2659.8 1149.06C2662.85 1145.47 2664.92 1141.15 2665.82 1136.52V1136.52Z" fill="#FFB8B8"/>
<path d="M2770.66 880.532L2842.83 903.445L2843.1 903.399C2869.97 898.9 2892.26 855.026 2906.22 819.014C2910.82 807.135 2910.74 793.955 2905.99 782.137C2901.24 770.32 2892.18 760.746 2880.64 755.353V755.353C2872.1 751.431 2862.63 749.976 2853.31 751.153C2843.99 752.329 2835.18 756.089 2827.89 762.008L2790.83 792.291L2770.66 880.532Z" fill="#6C63FF"/>
<path d="M2937.91 1180.73L2938.33 1180.17C2960.85 1150.3 2930.05 1076.35 2925.4 1065.62L2946.33 1059.42L2942.69 1019.55L2940.93 1001.78L2957.21 986.318L2957.26 985.924L2968.46 906.249L2983.11 853.515C2988.63 833.58 2988.74 812.534 2983.44 792.539C2978.14 772.543 2967.62 754.319 2952.95 739.735L2923 710.003L2887.12 653.846L2826.97 652.293L2805.34 690.719C2785.22 694.825 2767.18 705.857 2754.37 721.894C2741.55 737.932 2734.76 757.958 2735.19 778.484L2737.23 880.782L2715.64 1007.53L2715.04 1030.55L2693.85 1052.91L2697.77 1075.51L2681.92 1081.82L2674.17 1113.94C2671.21 1117.64 2651.65 1142.36 2651.47 1149.25C2651.45 1150.29 2652.18 1151.31 2653.79 1152.46C2666.45 1161.51 2737.2 1181.14 2769.04 1169.34C2802.96 1156.78 2935.88 1180.36 2937.22 1180.6L2937.91 1180.73Z" fill="#2DB2C4"/>
<path d="M2851.79 635.078C2895.81 635.078 2931.49 599.398 2931.49 555.385C2931.49 511.372 2895.81 475.692 2851.79 475.692C2807.78 475.692 2772.1 511.372 2772.1 555.385C2772.1 599.398 2807.78 635.078 2851.79 635.078Z" fill="#FFB8B8"/>
<path d="M2842.07 636.144C2854.41 636.337 2866.75 635.475 2878.94 633.568C2891.03 631.11 2918.07 611.295 2925.61 599.371C2931.21 590.512 2934.79 576.677 2936.81 566.633C2939.52 553.34 2939.42 539.625 2936.5 526.375C2933.58 513.125 2927.91 500.636 2919.86 489.716C2916.77 485.149 2912.49 481.503 2907.5 479.164C2907.05 478.991 2906.6 478.837 2906.14 478.706C2898.86 476.79 2892.31 472.742 2887.35 467.081C2886.39 465.936 2885.34 464.861 2884.23 463.866C2878.62 459.132 2871.97 455.792 2864.82 454.12C2853.28 451.033 2836.58 454.098 2815.19 463.24C2804.44 467.833 2792.69 466.171 2783.64 464.209C2783.14 464.111 2782.61 464.148 2782.12 464.315C2781.64 464.483 2781.2 464.775 2780.86 465.163C2777.01 468.775 2771.94 470.797 2766.66 470.822C2763.43 470.964 2760.04 475.439 2755.94 481.275C2755.01 482.6 2753.93 484.146 2753.14 485.086L2753.04 483.279L2751.21 485.295C2748.34 488.462 2746.31 492.306 2745.32 496.467C2744.33 500.628 2744.42 504.972 2745.56 509.093C2746.7 513.215 2748.87 516.98 2751.86 520.039C2754.84 523.098 2758.56 525.351 2762.65 526.587C2765.9 527.452 2769.24 527.983 2772.59 528.172C2774.63 528.355 2776.73 528.544 2778.75 528.894C2785.22 530.219 2791.24 533.201 2796.22 537.547C2801.2 541.893 2804.96 547.455 2807.15 553.691C2807.66 555.132 2808.5 556.436 2809.6 557.5C2810.71 558.565 2812.04 559.363 2813.49 559.831C2814.95 560.3 2816.5 560.428 2818.01 560.205C2819.53 559.981 2820.97 559.412 2822.23 558.543C2824.33 556.907 2826.8 555.803 2829.42 555.326C2832.04 554.849 2834.73 555.013 2837.27 555.803C2839.47 557.025 2841.18 558.965 2842.12 561.298C2843.26 563.898 2845.15 566.099 2847.54 567.622C2855.73 571.845 2856.3 590.553 2853.35 606.149C2850.52 621.182 2844.91 632.056 2839.72 632.594C2835.73 633.007 2835.27 633.291 2834.98 633.998L2834.72 634.63L2835.17 635.222C2837.38 636.022 2839.73 636.337 2842.07 636.144V636.144Z" fill="#2F2E41"/>
<path d="M2790.45 856.438L2759.72 795.177C2715.12 798.223 2626.6 849.792 2626.6 849.792L2459.12 885.303C2454.16 883.395 2448.78 882.829 2443.53 883.66C2438.28 884.491 2433.34 886.691 2429.21 890.037C2425.08 893.384 2421.91 897.759 2420.01 902.723C2418.1 907.687 2417.54 913.064 2418.38 918.313C2419.22 923.562 2421.42 928.498 2424.78 932.624C2428.13 936.749 2432.51 939.92 2437.47 941.815C2442.44 943.71 2447.82 944.264 2453.06 943.42C2458.31 942.576 2463.25 940.365 2467.37 937.009L2680.42 921.737L2790.45 856.438Z" fill="#FFB8B8"/>
<path d="M2778.06 866.497L2858.31 806.86L2872.44 755.919C2875.18 745.908 2875.07 735.331 2872.11 725.382C2869.15 715.434 2863.47 706.511 2855.71 699.622C2845.12 690.354 2831.41 685.451 2817.35 685.905C2803.29 686.359 2789.93 692.135 2779.96 702.066C2749.76 732.209 2715.32 774.261 2722.71 803.422L2722.79 803.717L2778.06 866.497Z" fill="#2DB2C4"/>
<path d="M2678.72 1026.01H2463.99V1054.64H2678.72V1026.01Z" fill="white"/>
<path d="M2129.97 1026.01H1915.25V1054.64H2129.97V1026.01Z" fill="white"/>
<path d="M2155.05 888.33V1024.65C2155.05 1026.38 2155.74 1028.05 2156.97 1029.28C2158.2 1030.51 2159.86 1031.2 2161.6 1031.2H2363.61C2365.34 1031.2 2367.01 1030.51 2368.24 1029.28C2369.47 1028.05 2370.16 1026.38 2370.16 1024.65V888.33C2370.15 886.594 2369.46 884.931 2368.23 883.704C2367.01 882.477 2365.34 881.787 2363.61 881.785H2161.6C2159.86 881.787 2158.2 882.477 2156.97 883.704C2155.74 884.931 2155.05 886.594 2155.05 888.33Z" fill="#3F3D56"/>
<path d="M2159.79 890.025V1022.97C2159.79 1023.89 2160.16 1024.78 2160.81 1025.44C2161.47 1026.1 2162.36 1026.46 2163.29 1026.47H2361.92C2362.85 1026.46 2363.74 1026.1 2364.4 1025.44C2365.05 1024.78 2365.42 1023.89 2365.43 1022.97V890.025C2365.43 889.096 2365.06 888.205 2364.4 887.547C2363.74 886.889 2362.85 886.519 2361.92 886.517H2163.29C2162.36 886.519 2161.47 886.889 2160.81 887.547C2160.15 888.205 2159.79 889.096 2159.79 890.025Z" fill="#6C63FF"/>
<path d="M2150.82 1051.23C2151.19 1051.7 2151.66 1052.07 2152.2 1052.33C2152.73 1052.58 2153.32 1052.71 2153.91 1052.71H2370.22C2370.81 1052.71 2371.39 1052.58 2371.92 1052.32C2372.46 1052.07 2372.93 1051.7 2373.3 1051.24C2373.67 1050.78 2373.94 1050.24 2374.08 1049.67C2374.22 1049.09 2374.23 1048.49 2374.11 1047.91L2370.75 1031.97C2370.61 1031.32 2370.31 1030.71 2369.88 1030.2C2369.44 1029.7 2368.89 1029.31 2368.27 1029.07C2367.82 1028.9 2367.34 1028.81 2366.86 1028.81H2157.26C2156.77 1028.81 2156.29 1028.9 2155.84 1029.07C2155.22 1029.31 2154.67 1029.7 2154.24 1030.2C2153.8 1030.71 2153.5 1031.32 2153.37 1031.97L2150.01 1047.91C2149.89 1048.49 2149.9 1049.09 2150.04 1049.66C2150.18 1050.24 2150.45 1050.77 2150.82 1051.23V1051.23Z" fill="#2F2E41"/>
<path d="M2359.44 1035.68H2364.55C2364.98 1035.68 2365.32 1035.33 2365.32 1034.9V1032.46C2365.32 1032.03 2364.98 1031.68 2364.55 1031.68H2359.44C2359.01 1031.68 2358.66 1032.03 2358.66 1032.46V1034.9C2358.66 1035.33 2359.01 1035.68 2359.44 1035.68Z" fill="#3F3D56"/>
<path d="M2346.11 1035.68H2351.22C2351.65 1035.68 2352 1035.33 2352 1034.9V1032.46C2352 1032.03 2351.65 1031.68 2351.22 1031.68H2346.11C2345.69 1031.68 2345.34 1032.03 2345.34 1032.46V1034.9C2345.34 1035.33 2345.69 1035.68 2346.11 1035.68Z" fill="#3F3D56"/>
<path d="M2332.79 1035.68H2337.9C2338.33 1035.68 2338.68 1035.33 2338.68 1034.9V1032.46C2338.68 1032.03 2338.33 1031.68 2337.9 1031.68H2332.79C2332.36 1031.68 2332.01 1032.03 2332.01 1032.46V1034.9C2332.01 1035.33 2332.36 1035.68 2332.79 1035.68Z" fill="#3F3D56"/>
<path d="M2319.47 1035.68H2324.58C2325 1035.68 2325.35 1035.33 2325.35 1034.9V1032.46C2325.35 1032.03 2325 1031.68 2324.58 1031.68H2319.47C2319.04 1031.68 2318.69 1032.03 2318.69 1032.46V1034.9C2318.69 1035.33 2319.04 1035.68 2319.47 1035.68Z" fill="#3F3D56"/>
<path d="M2306.14 1035.68H2311.25C2311.68 1035.68 2312.03 1035.33 2312.03 1034.9V1032.46C2312.03 1032.03 2311.68 1031.68 2311.25 1031.68H2306.14C2305.71 1031.68 2305.37 1032.03 2305.37 1032.46V1034.9C2305.37 1035.33 2305.71 1035.68 2306.14 1035.68Z" fill="#3F3D56"/>
<path d="M2292.82 1035.68H2297.93C2298.36 1035.68 2298.7 1035.33 2298.7 1034.9V1032.46C2298.7 1032.03 2298.36 1031.68 2297.93 1031.68H2292.82C2292.39 1031.68 2292.04 1032.03 2292.04 1032.46V1034.9C2292.04 1035.33 2292.39 1035.68 2292.82 1035.68Z" fill="#3F3D56"/>
<path d="M2279.49 1035.68H2284.6C2285.03 1035.68 2285.38 1035.33 2285.38 1034.9V1032.46C2285.38 1032.03 2285.03 1031.68 2284.6 1031.68H2279.49C2279.06 1031.68 2278.72 1032.03 2278.72 1032.46V1034.9C2278.72 1035.33 2279.06 1035.68 2279.49 1035.68Z" fill="#3F3D56"/>
<path d="M2266.17 1035.68H2271.28C2271.71 1035.68 2272.05 1035.33 2272.05 1034.9V1032.46C2272.05 1032.03 2271.71 1031.68 2271.28 1031.68H2266.17C2265.74 1031.68 2265.39 1032.03 2265.39 1032.46V1034.9C2265.39 1035.33 2265.74 1035.68 2266.17 1035.68Z" fill="#3F3D56"/>
<path d="M2252.84 1035.68H2257.95C2258.38 1035.68 2258.73 1035.33 2258.73 1034.9V1032.46C2258.73 1032.03 2258.38 1031.68 2257.95 1031.68H2252.84C2252.42 1031.68 2252.07 1032.03 2252.07 1032.46V1034.9C2252.07 1035.33 2252.42 1035.68 2252.84 1035.68Z" fill="#3F3D56"/>
<path d="M2239.52 1035.68H2244.63C2245.06 1035.68 2245.41 1035.33 2245.41 1034.9V1032.46C2245.41 1032.03 2245.06 1031.68 2244.63 1031.68H2239.52C2239.09 1031.68 2238.74 1032.03 2238.74 1032.46V1034.9C2238.74 1035.33 2239.09 1035.68 2239.52 1035.68Z" fill="#3F3D56"/>
<path d="M2226.2 1035.68H2231.31C2231.73 1035.68 2232.08 1035.33 2232.08 1034.9V1032.46C2232.08 1032.03 2231.73 1031.68 2231.31 1031.68H2226.2C2225.77 1031.68 2225.42 1032.03 2225.42 1032.46V1034.9C2225.42 1035.33 2225.77 1035.68 2226.2 1035.68Z" fill="#3F3D56"/>
<path d="M2212.87 1035.68H2217.98C2218.41 1035.68 2218.76 1035.33 2218.76 1034.9V1032.46C2218.76 1032.03 2218.41 1031.68 2217.98 1031.68H2212.87C2212.44 1031.68 2212.1 1032.03 2212.1 1032.46V1034.9C2212.1 1035.33 2212.44 1035.68 2212.87 1035.68Z" fill="#3F3D56"/>
<path d="M2199.55 1035.68H2204.66C2205.09 1035.68 2205.43 1035.33 2205.43 1034.9V1032.46C2205.43 1032.03 2205.09 1031.68 2204.66 1031.68H2199.55C2199.12 1031.68 2198.77 1032.03 2198.77 1032.46V1034.9C2198.77 1035.33 2199.12 1035.68 2199.55 1035.68Z" fill="#3F3D56"/>
<path d="M2186.22 1035.68H2191.33C2191.76 1035.68 2192.11 1035.33 2192.11 1034.9V1032.46C2192.11 1032.03 2191.76 1031.68 2191.33 1031.68H2186.22C2185.79 1031.68 2185.45 1032.03 2185.45 1032.46V1034.9C2185.45 1035.33 2185.79 1035.68 2186.22 1035.68Z" fill="#3F3D56"/>
<path d="M2172.9 1035.68H2178.01C2178.44 1035.68 2178.79 1035.33 2178.79 1034.9V1032.46C2178.79 1032.03 2178.44 1031.68 2178.01 1031.68H2172.9C2172.47 1031.68 2172.12 1032.03 2172.12 1032.46V1034.9C2172.12 1035.33 2172.47 1035.68 2172.9 1035.68Z" fill="#3F3D56"/>
<path d="M2159.58 1035.68H2164.68C2165.11 1035.68 2165.46 1035.33 2165.46 1034.9V1032.46C2165.46 1032.03 2165.11 1031.68 2164.68 1031.68H2159.58C2159.15 1031.68 2158.8 1032.03 2158.8 1032.46V1034.9C2158.8 1035.33 2159.15 1035.68 2159.58 1035.68Z" fill="#3F3D56"/>
<path d="M2359.59 1042.34H2364.7C2365.13 1042.34 2365.48 1041.99 2365.48 1041.56V1039.12C2365.48 1038.69 2365.13 1038.34 2364.7 1038.34H2359.59C2359.17 1038.34 2358.82 1038.69 2358.82 1039.12V1041.56C2358.82 1041.99 2359.17 1042.34 2359.59 1042.34Z" fill="#3F3D56"/>
<path d="M2346.27 1042.34H2351.38C2351.81 1042.34 2352.16 1041.99 2352.16 1041.56V1039.12C2352.16 1038.69 2351.81 1038.34 2351.38 1038.34H2346.27C2345.84 1038.34 2345.49 1038.69 2345.49 1039.12V1041.56C2345.49 1041.99 2345.84 1042.34 2346.27 1042.34Z" fill="#3F3D56"/>
<path d="M2332.95 1042.34H2338.06C2338.48 1042.34 2338.83 1041.99 2338.83 1041.56V1039.12C2338.83 1038.69 2338.48 1038.34 2338.06 1038.34H2332.95C2332.52 1038.34 2332.17 1038.69 2332.17 1039.12V1041.56C2332.17 1041.99 2332.52 1042.34 2332.95 1042.34Z" fill="#3F3D56"/>
<path d="M2319.62 1042.34H2324.73C2325.16 1042.34 2325.51 1041.99 2325.51 1041.56V1039.12C2325.51 1038.69 2325.16 1038.34 2324.73 1038.34H2319.62C2319.19 1038.34 2318.85 1038.69 2318.85 1039.12V1041.56C2318.85 1041.99 2319.19 1042.34 2319.62 1042.34Z" fill="#3F3D56"/>
<path d="M2306.3 1042.34H2311.41C2311.84 1042.34 2312.18 1041.99 2312.18 1041.56V1039.12C2312.18 1038.69 2311.84 1038.34 2311.41 1038.34H2306.3C2305.87 1038.34 2305.52 1038.69 2305.52 1039.12V1041.56C2305.52 1041.99 2305.87 1042.34 2306.3 1042.34Z" fill="#3F3D56"/>
<path d="M2292.97 1042.34H2298.08C2298.51 1042.34 2298.86 1041.99 2298.86 1041.56V1039.12C2298.86 1038.69 2298.51 1038.34 2298.08 1038.34H2292.97C2292.54 1038.34 2292.2 1038.69 2292.2 1039.12V1041.56C2292.2 1041.99 2292.54 1042.34 2292.97 1042.34Z" fill="#3F3D56"/>
<path d="M2279.65 1042.34H2284.76C2285.19 1042.34 2285.54 1041.99 2285.54 1041.56V1039.12C2285.54 1038.69 2285.19 1038.34 2284.76 1038.34H2279.65C2279.22 1038.34 2278.87 1038.69 2278.87 1039.12V1041.56C2278.87 1041.99 2279.22 1042.34 2279.65 1042.34Z" fill="#3F3D56"/>
<path d="M2266.33 1042.34H2271.43C2271.86 1042.34 2272.21 1041.99 2272.21 1041.56V1039.12C2272.21 1038.69 2271.86 1038.34 2271.43 1038.34H2266.33C2265.9 1038.34 2265.55 1038.69 2265.55 1039.12V1041.56C2265.55 1041.99 2265.9 1042.34 2266.33 1042.34Z" fill="#3F3D56"/>
<path d="M2253 1042.34H2258.11C2258.54 1042.34 2258.89 1041.99 2258.89 1041.56V1039.12C2258.89 1038.69 2258.54 1038.34 2258.11 1038.34H2253C2252.57 1038.34 2252.22 1038.69 2252.22 1039.12V1041.56C2252.22 1041.99 2252.57 1042.34 2253 1042.34Z" fill="#3F3D56"/>
<path d="M2239.68 1042.34H2244.79C2245.21 1042.34 2245.56 1041.99 2245.56 1041.56V1039.12C2245.56 1038.69 2245.21 1038.34 2244.79 1038.34H2239.68C2239.25 1038.34 2238.9 1038.69 2238.9 1039.12V1041.56C2238.9 1041.99 2239.25 1042.34 2239.68 1042.34Z" fill="#3F3D56"/>
<path d="M2226.35 1042.34H2231.46C2231.89 1042.34 2232.24 1041.99 2232.24 1041.56V1039.12C2232.24 1038.69 2231.89 1038.34 2231.46 1038.34H2226.35C2225.92 1038.34 2225.58 1038.69 2225.58 1039.12V1041.56C2225.58 1041.99 2225.92 1042.34 2226.35 1042.34Z" fill="#3F3D56"/>
<path d="M2213.03 1042.34H2218.14C2218.57 1042.34 2218.91 1041.99 2218.91 1041.56V1039.12C2218.91 1038.69 2218.57 1038.34 2218.14 1038.34H2213.03C2212.6 1038.34 2212.25 1038.69 2212.25 1039.12V1041.56C2212.25 1041.99 2212.6 1042.34 2213.03 1042.34Z" fill="#3F3D56"/>
<path d="M2199.7 1042.34H2204.81C2205.24 1042.34 2205.59 1041.99 2205.59 1041.56V1039.12C2205.59 1038.69 2205.24 1038.34 2204.81 1038.34H2199.7C2199.28 1038.34 2198.93 1038.69 2198.93 1039.12V1041.56C2198.93 1041.99 2199.28 1042.34 2199.7 1042.34Z" fill="#3F3D56"/>
<path d="M2186.38 1042.34H2191.49C2191.92 1042.34 2192.27 1041.99 2192.27 1041.56V1039.12C2192.27 1038.69 2191.92 1038.34 2191.49 1038.34H2186.38C2185.95 1038.34 2185.6 1038.69 2185.6 1039.12V1041.56C2185.6 1041.99 2185.95 1042.34 2186.38 1042.34Z" fill="#3F3D56"/>
<path d="M2173.06 1042.34H2178.16C2178.59 1042.34 2178.94 1041.99 2178.94 1041.56V1039.12C2178.94 1038.69 2178.59 1038.34 2178.16 1038.34H2173.06C2172.63 1038.34 2172.28 1038.69 2172.28 1039.12V1041.56C2172.28 1041.99 2172.63 1042.34 2173.06 1042.34Z" fill="#3F3D56"/>
<path d="M2159.73 1042.34H2164.84C2165.27 1042.34 2165.62 1041.99 2165.62 1041.56V1039.12C2165.62 1038.69 2165.27 1038.34 2164.84 1038.34H2159.73C2159.3 1038.34 2158.96 1038.69 2158.96 1039.12V1041.56C2158.96 1041.99 2159.3 1042.34 2159.73 1042.34Z" fill="#3F3D56"/>
<path d="M2249 1050.33H2300.75C2301.18 1050.33 2301.52 1049.99 2301.52 1049.56V1047.11C2301.52 1046.68 2301.18 1046.34 2300.75 1046.34H2249C2248.57 1046.34 2248.23 1046.68 2248.23 1047.11V1049.56C2248.23 1049.99 2248.57 1050.33 2249 1050.33Z" fill="#3F3D56"/>
</g>
<defs>
<clipPath id="clip0_749_785">
<rect width="1325.29" height="1007" fill="white" transform="translate(1744 449)"/>
</clipPath>
</defs>
</svg>
